<svg width="199" height="161" viewBox="0 0 199 161" fill="none" xmlns="http://www.w3.org/2000/svg">
<path fill-rule="evenodd" clip-rule="evenodd" d="M77.4323 0.270186C76.8125 0.560957 76.2701 1.82095 76.3476 2.75141C76.3753 3.04241 76.4228 3.79899 76.4759 4.64583L76.4761 4.64925L76.4762 4.65076L76.4762 4.6513L76.4786 4.68804L76.4786 4.68948C76.499 5.01389 76.5202 5.35051 76.5413 5.67847C76.5994 6.88032 76.6963 8.12093 76.735 8.45047C76.7737 8.76063 76.8706 9.86555 76.9287 10.8735C77.0643 13.1997 77.1999 15.0218 77.3161 16.0104C77.327 16.1303 77.3425 16.2914 77.3604 16.478L77.3605 16.4795L77.3606 16.4807C77.4065 16.9578 77.4681 17.6002 77.5098 18.1428C77.5679 18.8794 77.7035 20.2751 77.8004 21.2443C77.8906 21.9815 77.9808 22.9171 78.0438 23.571L78.0444 23.577C78.0623 23.7631 78.0781 23.9262 78.0909 24.055L78.1044 24.1903C78.1607 24.7543 78.2309 25.4592 78.2846 25.7997C78.4009 26.6332 78.4977 27.4667 78.6721 29.095C78.6995 29.3421 78.7269 29.5989 78.7526 29.8396V29.8397C78.7995 30.2788 78.8407 30.6644 78.8658 30.8396C78.931 31.2966 79.1305 32.7794 79.3135 34.14C79.4566 35.2035 79.5896 36.1924 79.6406 36.5581C79.7568 37.5661 80.3186 41.4624 80.4348 42.0827C80.4488 42.1809 80.4806 42.3859 80.5228 42.6581C80.5972 43.1376 80.704 43.8256 80.8028 44.5057C80.9578 45.5719 81.1321 46.6574 81.1902 46.9288C81.226 47.0838 81.269 47.3561 81.3149 47.6465L81.315 47.6472L81.3151 47.6478L81.3153 47.6486L81.3153 47.6492L81.3154 47.6496L81.3155 47.6503C81.3441 47.8309 81.3737 48.0184 81.4033 48.1888C81.4614 48.6153 81.5776 49.3519 81.6745 49.8171C81.8295 50.6313 81.7326 50.8833 80.2217 54.2756C77.6454 60.0909 73.2677 69.7445 72.2991 71.7992C71.8149 72.8266 71.4081 73.7183 71.4081 73.7764C71.4081 73.8152 70.8076 75.1334 70.0522 76.7035C69.3161 78.2543 68.6962 79.5724 68.6962 79.5918C68.6962 79.6693 66.2555 84.7675 64.0473 89.2841C62.2652 92.9672 60.3088 96.6502 59.9795 96.9992C59.902 97.0961 59.9407 96.6502 60.0763 95.9911C60.4638 94.0915 59.747 93.2579 58.6429 94.3822C58.0037 95.0219 57.6357 96.1075 57.3838 98.1816C57.3257 98.5887 57.2482 98.957 57.2289 98.9764C57.1901 98.9958 56.1635 99.0733 54.9431 99.1508C52.4056 99.2865 52.0376 99.3447 49.5194 99.8681C49.2678 99.9213 49.015 99.9746 48.7737 100.025C48.0488 100.178 47.4274 100.309 47.253 100.353C47.0206 100.391 45.6259 100.779 44.1538 101.206C42.701 101.613 41.4806 101.942 41.4613 101.923C41.345 101.787 46.5363 91.3001 52.0957 80.4253C52.6381 79.3786 52.8318 78.797 52.7349 78.4675C52.4443 77.3044 51.3015 77.7503 50.3911 79.3786C48.4153 82.926 41.8293 96.0493 40.299 99.461C39.9891 100.159 39.4855 101.244 39.1562 101.865L38.575 103.008L35.7082 104.152C29.1997 106.769 22.1682 110.685 16.6089 114.833C15.5822 115.589 14.7105 116.267 14.6524 116.326C14.5943 116.384 14.1294 116.791 13.587 117.198C13.064 117.624 12.3667 118.206 12.0374 118.497L11.794 118.71C11.5109 118.958 11.1792 119.249 10.972 119.427C8.0277 121.947 2.27465 128.208 1.75165 129.468C1.44172 130.166 1.55794 130.98 2.00346 131.135C2.46836 131.329 3.10758 130.845 4.40541 129.313C11.282 121.21 20.483 114.116 30.052 109.541C33.7711 107.758 33.9842 107.661 36.6961 106.614C36.9479 106.517 37.1029 106.498 37.0641 106.595C36.6574 107.389 33.8099 114.135 32.1828 118.167C31.929 118.796 31.6828 119.408 31.4612 119.958C30.9722 121.173 30.6029 122.091 30.5363 122.238C29.6646 124.099 25.6161 135.342 23.3692 142.107C20.1537 151.761 19.9793 152.4 20.5023 152.924C20.851 153.273 21.1416 153.214 21.8002 152.652C22.2457 152.284 22.4975 151.761 22.8849 150.481C23.6016 148.116 27.4176 136.679 28.4636 133.772C30.2651 128.77 33.6549 119.873 34.5072 117.973C34.6428 117.663 35.2627 116.17 35.8632 114.678C37.5097 110.685 39.6598 105.8 39.9116 105.548C40.2603 105.179 47.3693 103.105 49.0545 102.873C49.3644 102.834 49.9649 102.737 50.3911 102.659C52.8705 102.252 53.5872 102.194 55.1369 102.252C57.0739 102.33 57.7519 102.582 57.4807 103.125C56.7059 104.559 50.2361 109.58 42.701 114.6C40.9964 115.725 40.1247 117.237 40.8608 117.838C40.977 117.954 41.8293 118.225 42.7203 118.458C51.6114 120.726 57.3645 124.913 58.2555 129.798C58.8366 132.958 57.4613 136.931 54.3814 141.002C52.793 143.115 49.5388 146.43 47.5823 147.903C47.2143 148.174 46.7881 148.523 46.6526 148.659C46.0133 149.241 41.8874 151.857 40.0278 152.846C35.1271 155.424 29.0835 157.285 24.1246 157.75C22.0713 157.925 16.9188 157.944 15.1367 157.75C8.31826 157.053 3.86303 154.513 2.77828 150.733C1.90661 147.651 2.93325 143.406 5.29645 140.265C6.49743 138.676 8.53133 137.048 10.3328 136.195C10.7402 136.005 11.1754 135.797 11.5545 135.616C11.9505 135.426 12.2854 135.266 12.4636 135.187C13.4902 134.683 14.0132 133.151 13.374 132.512C13.0059 132.143 12.7735 132.202 10.6234 133.21C6.16813 135.264 2.87514 138.947 1.09305 143.793C-0.0498148 146.973 -0.321002 150.345 0.395708 152.807C1.32549 155.928 4.15359 158.429 8.18266 159.728C9.82916 160.251 11.7081 160.619 14.1682 160.91C15.5047 161.065 22.5556 161.007 23.6597 160.833C23.9255 160.783 24.4761 160.704 24.9696 160.634L24.9711 160.634L24.9733 160.634L25.2094 160.6C25.5727 160.56 25.964 160.5 26.2211 160.462C26.3341 160.445 26.4211 160.431 26.4685 160.425C32.4733 159.224 37.1029 157.46 42.2554 154.416C45.9358 152.245 48.8995 149.919 52.3281 146.469C57.9456 140.847 61.0061 134.857 60.8512 129.759C60.7737 127.646 60.58 126.832 59.747 125.146C58.4105 122.451 55.8923 120.202 52.0569 118.264C51.224 117.838 50.4686 117.489 50.4104 117.489C50.3523 117.489 49.9262 117.314 49.4613 117.12C49.0158 116.907 47.931 116.5 47.04 116.209C46.1489 115.918 45.5097 115.628 45.5872 115.55C45.6647 115.473 46.9625 114.542 48.454 113.515C56.7252 107.719 60.2507 104.055 60.2119 101.283C60.1926 100.566 60.3088 100.217 60.7349 99.6742C61.0255 99.2865 61.6454 98.3173 62.1102 97.5225C62.9432 96.0881 67.6696 86.6866 68.8899 84.0503C69.1958 83.3872 69.7698 82.1723 70.2461 81.1643L70.2464 81.1638L70.2483 81.1597L70.4396 80.7549C71.179 79.2092 71.5421 78.4167 72.4275 76.4842L72.4279 76.4833L72.4284 76.4823C72.5865 76.1372 72.7612 75.7558 72.9577 75.3272C73.2483 74.6875 73.7713 73.5438 74.12 72.8072C74.4823 72.0217 76.2978 68.0262 77.8577 64.5932L77.8631 64.5813C78.8031 62.5127 79.6494 60.65 80.028 59.8195C80.1305 59.5801 80.3085 59.1822 80.5186 58.7125L80.5189 58.7117C80.785 58.1167 81.1026 57.4065 81.3839 56.7568C82.3331 54.6633 82.643 54.2756 82.643 55.1866C82.643 55.458 82.7205 56.0396 82.8367 56.4854C82.9917 57.1445 83.5922 60.2072 84.1152 63.018C84.1261 63.0689 84.1438 63.1544 84.1671 63.2683L84.2358 63.6044C84.3478 64.1534 84.5178 64.9869 84.6963 65.8288C84.8071 66.3517 84.918 66.8681 85.0129 67.3105L85.0145 67.3179L85.0148 67.319C85.1513 67.9549 85.2546 68.4365 85.2774 68.562C85.3936 69.1435 86.4396 73.8152 86.9239 75.9087C87.8731 79.9601 89.2871 85.4266 89.4421 85.7367C89.5389 85.9306 89.8101 86.0856 90.0232 86.0856C90.5268 86.0856 91.4954 85.1358 91.6503 84.4767C91.7472 84.1472 91.3404 82.1506 90.5268 78.7777C88.9191 72.2644 87.3888 65.5768 86.8077 62.5722C86.7735 62.4012 86.7327 62.17 86.693 61.9454L86.6929 61.9449C86.6651 61.7876 86.6379 61.6337 86.614 61.506C86.5559 61.2152 86.3428 60.1491 86.1297 59.1411C85.9985 58.4584 85.7962 57.3933 85.6071 56.3976C85.517 55.9231 85.4299 55.4644 85.3549 55.0703C85.1224 53.8491 84.8125 52.2014 84.6769 51.426C84.4057 50.0691 84.4057 49.9916 84.8513 49.003C85.2468 48.1321 85.5526 47.4409 86.1413 46.1103L86.142 46.1085L86.1431 46.1061L86.1458 46.1001L86.1463 46.0988L86.1488 46.0931C86.4236 45.4719 86.7599 44.7118 87.1951 43.7304C87.6882 42.6201 88.7329 40.2464 89.7539 37.9265L89.7557 37.9224L90.5268 36.1704L90.8238 35.4959L90.8245 35.4944C92.0764 32.6509 94.0254 28.2243 95.3307 25.2181C96.7448 21.9615 98.0813 18.9181 98.2944 18.4335C98.4138 18.1619 98.6488 17.6164 98.921 16.9845L98.9228 16.9803C99.1358 16.4858 99.3715 15.9387 99.5922 15.4289C100.096 14.2465 100.658 12.9477 100.851 12.5212C101.045 12.0948 101.568 10.8735 102.014 9.80739C102.459 8.74124 102.982 7.52001 103.176 7.09355C105.093 2.84834 105.713 1.14249 105.539 0.638496C105.171 -0.466423 104.009 0.0375685 103.273 1.62711C103.021 2.18925 102.169 4.16649 101.374 6.0274C99.9409 9.38093 96.2218 17.9877 95.7181 19.112L95.6235 19.3282L95.6221 19.3313C95.2899 20.09 94.2434 22.4797 93.1225 25.063C91.844 28.0095 90.6237 30.8009 90.4106 31.2661C89.9263 32.3516 88.0861 36.5387 87.2919 38.3996C86.9433 39.1944 86.4396 40.3187 86.1878 40.8808C85.936 41.443 85.2968 42.8774 84.7931 44.0599C84.1345 45.5331 83.8053 46.0953 83.7471 45.8433C83.6503 45.5331 83.3404 43.5753 82.9336 40.8227C82.8649 40.4447 82.7962 39.9601 82.7545 39.6659L82.7399 39.5627C82.7011 39.2913 82.6043 38.6322 82.5268 38.1088C82.4687 37.5661 82.3718 36.9652 82.3331 36.7519C82.2943 36.5387 82.2169 35.9765 82.1588 35.4919C82.117 35.144 82.0553 34.7361 82.0095 34.4332L82.0094 34.4326L82.0093 34.4316L82.009 34.4301L81.9822 34.2516L81.9729 34.1891L81.965 34.135C81.955 34.0646 81.941 33.9745 81.9252 33.8724C81.8799 33.5809 81.8194 33.1908 81.7907 32.875C81.7617 32.6625 81.7232 32.3825 81.6846 32.1024L81.6842 32.0997L81.6819 32.083L81.6787 32.0598C81.6418 31.7922 81.6053 31.5274 81.5776 31.3243C81.5418 30.9302 81.4564 30.3045 81.3978 29.8752L81.3976 29.8735L81.3975 29.8732L81.3839 29.7735C81.3452 29.347 81.2096 28.2033 81.0934 27.2535C80.9771 26.2843 80.8416 25.1406 80.8028 24.6754C80.7716 24.4355 80.7347 24.1058 80.6982 23.7799L80.698 23.7781L80.6978 23.7756L80.6975 23.7739C80.6665 23.4962 80.6358 23.2216 80.6091 23.0083C80.551 22.5237 80.4541 21.632 80.4154 21.0117C80.3573 20.3914 80.2798 19.5772 80.2217 19.2089L80.1972 18.9794L80.1972 18.9791C80.151 18.5474 80.0762 17.849 80.028 17.2704C79.8924 15.584 79.7374 13.8394 79.6406 13.0058C79.6018 12.6375 79.505 11.5326 79.4469 10.5828C79.4086 9.94479 79.3536 9.18082 79.3094 8.5673L79.3094 8.56688C79.2864 8.24851 79.2664 7.97067 79.2532 7.772C79.1969 7.2094 79.1226 5.99362 79.0652 5.05499V5.05486L79.0651 5.05363L79.0595 4.96125C78.7302 -0.311357 78.7108 -0.350127 77.4323 0.270186ZM138.421 58.1922C137.841 58.4129 136.836 59.637 136.391 60.6603C135.888 61.8041 135.753 63.2489 136.082 63.7505C136.43 64.2522 136.526 64.2722 137.203 63.911C137.841 63.5699 138.383 62.5064 138.383 61.6034C138.383 61.2623 138.46 60.9814 138.557 60.9814C138.885 60.9814 139.543 59.637 139.543 59.0149C139.543 58.2725 139.079 57.9313 138.421 58.1922ZM141.027 62.9165C142.136 61.9128 143.742 60.9092 144.621 60.649C145.52 60.3889 146.514 60.5561 147.049 61.0208C147.26 61.2066 147.566 61.727 147.738 62.2102C147.929 62.6748 148.139 63.1395 148.235 63.2324C148.541 63.5855 148.388 64.5891 147.91 65.221C146.361 67.3212 144.564 70.0346 144.353 70.6479C144.124 71.2612 144.143 71.3728 144.373 71.54C145.481 72.2463 151.753 69.8488 158.043 66.3176C159.248 65.6485 159.802 65.6113 160.07 66.206C160.242 66.5778 160.204 66.8194 159.879 67.4884C159.515 68.2133 159.248 68.4177 157.508 69.347C149.63 73.5101 144.583 75.2757 142.786 74.4765C142.25 74.2349 141.849 73.6587 141.715 72.8782L141.6 72.302L140.491 73.287C139.325 74.3278 138.044 75.0526 137.336 75.0526C137.126 75.0526 136.705 74.8668 136.419 74.6252C135.979 74.2535 135.902 74.049 135.902 73.1755C135.902 69.9231 138.044 65.6113 141.027 62.9165ZM145.386 65.2396C145.596 65.1467 145.558 64.5334 145.29 63.9944C144.43 62.1545 139.765 66.2246 138.732 69.7558C138.331 71.1126 138.254 71.6887 138.465 71.8188C138.828 72.0418 141.505 69.57 144.009 66.6893C144.678 65.9273 145.29 65.2582 145.386 65.2396ZM118.367 63.1952C118.209 63.3315 117.382 64.4416 116.555 65.6686C114.801 68.2588 113.127 70.1284 110.842 72.0564C107.099 75.1725 102.332 77.7237 99.2985 78.2496C98.6878 78.347 98.806 78.2496 99.988 77.6653C104.341 75.562 107.217 72.2707 107.434 69.1741C107.572 67.2071 106.745 65.2206 105.445 64.3637C104.243 63.5847 102.293 64.2079 100.54 65.9412C97.3877 69.0573 94.6693 74.6467 94.6496 78.0548C94.6299 79.4765 94.689 79.6907 95.1617 80.314C96.2058 81.6577 97.9787 81.7746 101.071 80.684C103.849 79.7297 108.399 77.0811 110.941 74.9388C111.669 74.3351 112.26 73.8871 112.26 73.9261C112.26 73.9845 112.044 74.413 111.807 74.8609C110.153 77.8406 108.734 80.645 108.636 81.1514C108.498 81.833 108.695 82.203 109.227 82.3004C109.837 82.4173 110.35 81.8914 111.551 79.905C112.832 77.8017 114.92 74.9972 116.318 73.4781C118.268 71.3359 122.149 67.8109 122.543 67.8109C122.74 67.8109 122.307 68.7457 120.731 71.7059C118.958 75.0751 118.328 76.6137 118.328 77.6848C118.328 79.3791 119.372 79.7297 121.302 78.717C122.977 77.8211 128.118 73.7897 129.832 71.998C130.02 71.8019 130.114 71.7045 130.135 71.7183C130.156 71.732 130.107 71.8537 130.009 72.0954C129.935 72.3004 129.638 72.9566 129.295 73.7167C129.181 73.9676 129.063 74.2298 128.945 74.4909C128.453 75.562 128.098 76.5552 128.118 76.7305C128.157 76.9253 128.197 77.159 128.197 77.2953C128.236 77.6848 128.985 77.8017 129.497 77.4706C129.989 77.1395 130.62 75.9126 133.141 70.3426C134.717 66.876 134.934 66.1555 134.481 65.7075C134.008 65.2401 133.476 65.5128 131.703 67.1876C129.714 69.0573 127.941 70.6932 126.759 71.7254C126.345 72.0954 125.892 72.4849 125.774 72.5823C124.769 73.5171 121.145 76.0878 121.026 75.9515C120.948 75.8931 121.302 75.153 123.39 71.1216C125.005 68.0251 125.242 67.4408 125.399 66.1944C125.754 63.1563 123.154 63.8379 118.82 67.8693L117.106 69.4662L118.308 67.2266C119.726 64.5195 119.943 63.9548 119.726 63.3705C119.549 62.8836 118.859 62.8057 118.367 63.1952ZM104.282 67.9861C105.642 69.9921 104.834 71.9201 101.781 73.8482C100.599 74.6077 97.5256 75.9126 97.3483 75.7178C97.2104 75.5815 97.9984 73.4197 98.6681 72.0954C99.4955 70.479 100.343 69.291 101.465 68.1809C102.253 67.4019 102.549 67.2266 103.1 67.2266C103.672 67.2266 103.869 67.3434 104.282 67.9861ZM188.9 105.074C191.452 103.801 194.584 102.255 195.86 101.629C197.117 100.983 198.258 100.474 198.393 100.474C199.186 100.474 199.205 102.118 198.432 102.96C198.181 103.234 196.634 104.114 194.99 104.917C188.919 107.912 182.442 111.063 180.006 112.218C179.609 112.41 179.077 112.661 178.529 112.921L178.525 112.922C177.899 113.218 177.252 113.525 176.758 113.764C174.322 114.9 169.836 116.857 168.019 117.542C163.127 119.402 162.122 119.323 162.122 117.17C162.122 116.309 161.851 116.035 161.638 116.7C161.445 117.366 159.782 118.893 158.758 119.382C157.443 120.008 156.457 119.989 155.838 119.362C155.335 118.873 155.277 118.579 155.335 117.111C155.413 114.997 157.462 112.335 159.473 111.729C160.73 111.357 162.006 111.357 162.315 111.729C162.45 111.885 162.682 112.022 162.818 112.022C163.262 112.022 164.21 113.549 164.461 114.684C164.597 115.271 164.713 115.741 164.751 115.741C164.771 115.741 165.351 115.565 166.027 115.35C169.488 114.273 178.711 110.124 188.9 105.074ZM159.028 116.426C159.55 116.152 160.188 115.252 160.188 114.782C160.188 114.215 158.139 114.978 157.926 115.624C157.559 116.759 157.907 117.014 159.028 116.426ZM154.359 111.923C151.129 113.705 148.603 115.623 145.333 118.801C144.394 119.711 143.61 120.428 143.61 120.37C143.61 120.331 143.943 119.44 144.374 118.413L144.441 118.245C145.171 116.427 145.325 116.043 145.218 115.757C145.19 115.68 145.142 115.611 145.083 115.522C145.075 115.511 145.067 115.5 145.059 115.488C144.628 114.887 144.198 114.984 143.121 115.953C142.005 116.96 138.657 119.537 138.461 119.537C138.402 119.537 138.383 119.343 138.441 119.091C138.833 117.289 138.344 115.003 137.443 114.422C136.112 113.57 133.997 114.79 132.822 117.076C132.587 117.522 132.333 117.929 132.254 117.987C132.176 118.045 131.785 118.626 131.393 119.285C130.316 121.106 128.26 122.656 126.087 123.256C124.012 123.838 123.777 123.179 125.108 120.602C125.793 119.285 126.009 118.665 125.911 118.316C125.676 117.348 124.912 117.503 123.503 118.762C123.091 119.149 121.838 120.234 120.703 121.184C119.567 122.133 118.49 123.082 118.314 123.295C117.825 123.818 117.864 123.702 118.823 121.435C119.822 119.149 119.861 119.014 119.645 118.413C119.469 117.89 118.764 117.851 118.197 118.316C118.001 118.51 117.413 119.188 116.924 119.847C115.005 122.385 111.109 125.717 108.485 127.073C106.919 127.906 106.743 127.867 106.899 126.879C106.978 126.434 107.154 125.794 107.291 125.465C107.565 124.787 107.506 123.993 107.134 123.76C106.762 123.528 106.253 123.76 104.765 124.864C103.258 125.949 101.848 126.782 101.182 126.976C100.771 127.112 100.771 127.073 100.967 126.376C101.437 124.613 103.591 122.094 105.372 121.222C106.723 120.544 108.27 120.079 108.896 120.157C109.582 120.234 109.543 120.641 108.74 121.803C107.82 123.101 107.506 123.973 107.761 124.516C108.329 125.736 109.817 124.477 111.305 121.513C112.969 118.181 111.755 116.282 108.505 117.134C107.213 117.464 104.785 118.626 103.786 119.382C100.889 121.59 98.5391 125.252 98.3041 127.964C98.0888 130.541 99.8705 130.89 103.042 128.894C103.61 128.545 104.119 128.255 104.158 128.255C104.217 128.255 104.256 128.507 104.256 128.836C104.256 130.153 105.176 130.928 106.469 130.696C108.074 130.405 111.344 128.429 113.654 126.356C114.242 125.814 114.751 125.407 114.79 125.426C114.809 125.465 114.614 125.969 114.339 126.589C113.635 128.177 113.713 129.03 114.574 129.03C114.966 129.03 116.669 127.79 117.766 126.705C117.797 126.674 118.01 126.491 118.323 126.221L118.325 126.219C118.602 125.981 118.956 125.675 119.332 125.349C120.135 124.671 120.84 124.051 120.899 123.993C120.957 123.935 121.173 123.741 121.388 123.566C121.76 123.256 121.78 123.276 121.799 124.07C121.838 125.097 122.269 125.949 122.915 126.298C124.09 126.918 127.379 126.007 129.376 124.477C130.12 123.935 130.297 123.876 130.297 124.245C130.297 124.399 130.492 124.69 130.747 124.923C131.53 125.659 133.116 125.407 134.819 124.264C135.387 123.896 136.288 123.392 136.836 123.179C137.913 122.714 139.44 121.862 140.399 121.145C140.732 120.893 141.045 120.699 141.104 120.699C141.143 120.699 141.006 121.377 140.791 122.21C140.458 123.508 140.439 123.818 140.654 124.322C140.948 125.039 141.437 125.213 142.161 124.845C142.455 124.69 144.119 123.14 145.842 121.416C149.014 118.258 150.815 116.824 153.831 115.081C156.258 113.686 156.748 113.066 156.454 111.904C156.278 111.187 155.71 111.187 154.359 111.923ZM135.759 117.483C136.229 118.045 136.112 120.505 135.622 120.505C134.721 120.486 134.271 118.626 134.917 117.658C135.25 117.154 135.446 117.096 135.759 117.483ZM89.2428 120.77C88.4807 120.253 88.561 118.971 89.4233 118.014C89.8244 117.555 90.1052 117.421 90.6667 117.421C92.4316 117.421 95.5602 119.564 96.0415 121.096C96.7033 123.105 95.6604 125.631 93.1335 128.176C92.7525 128.578 92.5118 128.904 92.592 128.904C92.6722 128.904 93.8154 128.425 95.1189 127.851C97.9467 126.569 98.5283 126.645 98.2074 128.234C98.047 129.133 97.3049 129.688 95.1189 130.626C94.8664 130.733 94.6092 130.842 94.3595 130.947C93.578 131.278 92.8704 131.577 92.6121 131.679C90.4662 132.597 88.6011 132.846 88.2401 132.234C87.5382 131.066 87.9994 130.167 90.747 127.449C93.8956 124.292 94.1362 123.832 93.2137 122.55C92.3915 121.383 92.0505 121.421 90.747 122.818C89.1827 124.483 85.0313 128.425 83.6876 129.516L83.5464 129.631C81.653 131.17 81.4554 131.33 80.3785 131.947C78.9747 132.75 77.8717 133.114 77.1497 132.999C76.4678 132.904 75.4651 131.927 75.4651 131.392C75.4651 130.741 75.1442 130.817 74.3219 131.64C69.4085 136.597 65.2571 136.922 65.5379 132.349C65.8186 127.296 69.4085 122.11 73.8406 120.311C75.786 119.526 77.4906 119.756 78.734 121.019C79.4961 121.765 79.5162 122.339 78.8544 124.349C78.1926 126.378 77.8115 128.387 77.8917 129.191C77.9719 129.708 78.0321 129.765 78.714 129.746C80.0376 129.708 81.9027 128.33 86.4753 123.947C89.1225 121.421 89.5236 120.962 89.2428 120.77ZM75.1843 127.239C75.9464 126.014 76.7686 123.756 76.528 123.526C76.1269 123.143 74.9236 122.856 74.3219 122.971C72.136 123.43 69.5288 126.052 68.5662 128.751C68.1049 130.052 67.9846 131.813 68.3255 132.253C68.5662 132.578 68.6865 132.597 69.4085 132.387C71.1332 131.889 73.6601 129.631 75.1843 127.239Z" fill="url(#paint0_linear)"/>
<defs>
<linearGradient id="paint0_linear" x1="1.73526e-05" y1="161" x2="117.423" y2="63.1275" gradientUnits="userSpaceOnUse">
<stop stop-color="#3E3DD1"/>
<stop offset="0.239583" stop-color="#DE1DB1"/>
<stop offset="0.65625" stop-color="#FC2976"/>
<stop offset="1" stop-color="#FC7300"/>
</linearGradient>
</defs>
</svg>
